# xmcd CD database file generated by Grip 3.2.0
# 
# Track frame offsets:
#       150
#       19356
#       39684
#       59191
#       77644
#       101197
#       120625
#       145078
#       165856
#       181834
#       199312
#       220465
#       238993
#       257896
#       270874
#       290827
#       307930
# 
# Disc length: 4340 seconds
# 
# Revision: 7
# Processed by: cddbd v1.5.2PL0 Copyright (c) Steve Scherf et al.
# Submitted via: Grip 3.2.0
# 
DISCID=0310f211
DTITLE=Alanis Morissette - Supposed Former Infatuation Junkie
DYEAR=1998
DGENRE=New Age
TTITLE0=Front Row
TTITLE1=Baba
TTITLE2=Thank U
TTITLE3=Are You Still Mad
TTITLE4=Sympathetic Character
TTITLE5=That I Would Be Good
TTITLE6=The Couch
TTITLE7=Can't Not
TTITLE8=Ur
TTITLE9=I Was Hoping
TTITLE10=One
TTITLE11=Would Not Come
TTITLE12=Unsent
TTITLE13=So Pure
TTITLE14=Joining You
TTITLE15=Heart Of The House
TTITLE16=Your Congratulations
EXTD=
EXTT0=
EXTT1=
EXTT2=
EXTT3=
EXTT4=
EXTT5=
EXTT6=
EXTT7=
EXTT8=
EXTT9=
EXTT10=
EXTT11=
EXTT12=
EXTT13=
EXTT14=
EXTT15=
EXTT16=
PLAYORDER=
